<svg width="36" height="6" viewBox="0 0 36 6" fill="none" xmlns="http://www.w3.org/2000/svg">
<path d="M3.56851 1.22966L2.65764 2.43561C2.9912 2.51258 3.25634 2.66653 3.45305 2.89746C3.65404 3.12411 3.75454 3.40207 3.75454 3.73135C3.75454 4.18038 3.60272 4.53318 3.2991 4.78976C2.99975 5.04635 2.62771 5.17464 2.18296 5.17464C1.8323 5.17464 1.52226 5.09552 1.25285 4.9373C0.983433 4.77479 0.790995 4.54387 0.675532 4.24452L1.30416 3.87889C1.43673 4.26377 1.72966 4.4562 2.18296 4.4562C2.43955 4.4562 2.64267 4.39206 2.79235 4.26377C2.94202 4.1312 3.01686 3.95373 3.01686 3.73135C3.01686 3.50898 2.94202 3.33365 2.79235 3.20536C2.64267 3.07707 2.43955 3.01292 2.18296 3.01292H2.01618L1.72111 2.57031L2.68971 1.29381H0.810239V0.601032H3.56851V1.22966ZM7.29564 4.53959C6.98774 4.96296 6.55583 5.17464 5.99989 5.17464C5.44824 5.17464 5.01419 4.96296 4.69773 4.53959C4.38983 4.11623 4.23588 3.55175 4.23588 2.84614C4.23588 2.14053 4.38983 1.57605 4.69773 1.15269C5.01419 0.729324 5.44824 0.517643 5.99989 0.517643C6.55583 0.517643 6.98774 0.729324 7.29564 1.15269C7.60782 1.57177 7.76391 2.13626 7.76391 2.84614C7.76391 3.55602 7.60782 4.12051 7.29564 4.53959ZM5.99989 4.4562C6.33345 4.4562 6.5879 4.31722 6.76323 4.03925C6.93856 3.76129 7.02623 3.36358 7.02623 2.84614C7.02623 2.3287 6.93856 1.93099 6.76323 1.65303C6.5879 1.37506 6.33345 1.23608 5.99989 1.23608C5.67061 1.23608 5.41617 1.37506 5.23656 1.65303C5.06123 1.93099 4.97356 2.3287 4.97356 2.84614C4.97356 3.36358 5.06123 3.76129 5.23656 4.03925C5.41617 4.31722 5.67061 4.4562 5.99989 4.4562ZM12.7409 4.68713C12.4159 5.01213 12.016 5.17464 11.5414 5.17464C11.0667 5.17464 10.6668 5.01213 10.3418 4.68713C10.0125 4.35785 9.8479 3.958 9.8479 3.4876C9.8479 3.0172 10.0125 2.61735 10.3418 2.28807C10.6668 1.96306 11.0667 1.80056 11.5414 1.80056C12.016 1.80056 12.4159 1.96306 12.7409 2.28807C13.0702 2.61735 13.2348 3.0172 13.2348 3.4876C13.2348 3.958 13.0702 4.35785 12.7409 4.68713ZM10.5407 3.4876C10.5407 3.77839 10.6369 4.02001 10.8293 4.21245C11.0218 4.40489 11.2591 4.5011 11.5414 4.5011C11.8236 4.5011 12.0609 4.40489 12.2534 4.21245C12.4458 4.02001 12.542 3.77839 12.542 3.4876C12.542 3.1968 12.4458 2.95519 12.2534 2.76275C12.0609 2.57031 11.8236 2.47409 11.5414 2.47409C11.2591 2.47409 11.0218 2.57031 10.8293 2.76275C10.6369 2.95519 10.5407 3.1968 10.5407 3.4876ZM16.0229 3.16045V1.88395H16.7157V5.09125H16.0229V3.81474H14.554V5.09125H13.8612V1.88395H14.554V3.16045H16.0229ZM20.0597 2.33939V1.88395H20.7525V5.09125H20.0597V4.6294C19.7989 4.99289 19.4247 5.17464 18.9372 5.17464C18.4967 5.17464 18.1204 5.01213 17.8082 4.68713C17.496 4.36212 17.3399 3.96228 17.3399 3.4876C17.3399 3.01292 17.496 2.61308 17.8082 2.28807C18.1204 1.96306 18.4967 1.80056 18.9372 1.80056C19.4247 1.80056 19.7989 1.98017 20.0597 2.33939ZM18.3214 4.22528C18.5138 4.41772 18.7554 4.51393 19.0462 4.51393C19.337 4.51393 19.5786 4.41772 19.7711 4.22528C19.9635 4.02856 20.0597 3.78267 20.0597 3.4876C20.0597 3.19253 19.9635 2.94877 19.7711 2.75634C19.5786 2.55962 19.337 2.46126 19.0462 2.46126C18.7554 2.46126 18.5138 2.55962 18.3214 2.75634C18.1289 2.94877 18.0327 3.19253 18.0327 3.4876C18.0327 3.77839 18.1289 4.02429 18.3214 4.22528ZM21.8102 1.88395H24.2669V5.09125H23.5742V2.55107H22.5029V3.74418C22.5029 4.24452 22.3939 4.60374 22.1758 4.82183C21.9577 5.03993 21.6391 5.12974 21.22 5.09125V4.44337C21.4167 4.47758 21.5643 4.43696 21.6626 4.3215C21.761 4.20176 21.8102 3.99863 21.8102 3.71211V1.88395ZM27.6144 2.33939V1.88395H28.3072V5.09125H27.6144V4.6294C27.3536 4.99289 26.9794 5.17464 26.4919 5.17464C26.0514 5.17464 25.6751 5.01213 25.3629 4.68713C25.0507 4.36212 24.8946 3.96228 24.8946 3.4876C24.8946 3.01292 25.0507 2.61308 25.3629 2.28807C25.6751 1.96306 26.0514 1.80056 26.4919 1.80056C26.9794 1.80056 27.3536 1.98017 27.6144 2.33939ZM25.8761 4.22528C26.0685 4.41772 26.3101 4.51393 26.6009 4.51393C26.8917 4.51393 27.1333 4.41772 27.3258 4.22528C27.5182 4.02856 27.6144 3.78267 27.6144 3.4876C27.6144 3.19253 27.5182 2.94877 27.3258 2.75634C27.1333 2.55962 26.8917 2.46126 26.6009 2.46126C26.3101 2.46126 26.0685 2.55962 25.8761 2.75634C25.6836 2.94877 25.5874 3.19253 25.5874 3.4876C25.5874 3.77839 25.6836 4.02429 25.8761 4.22528ZM31.4368 1.43493H29.6407V0.831958H31.4368V1.43493ZM29.7946 3.91738L31.4368 1.88395H31.9692V5.09125H31.2892V3.05141L29.6471 5.09125H29.1147V1.88395H29.7946V3.91738ZM34.9347 3.16045V1.88395H35.6275V5.09125H34.9347V3.81474H33.4658V5.09125H32.773V1.88395H33.4658V3.16045H34.9347Z" fill="white"/>
</svg>
