<svg width="28" height="27" viewBox="0 0 28 27" fill="none" xmlns="http://www.w3.org/2000/svg">
<path d="M27.0638 26.2671L24.5744 20.5583C24.4399 20.1556 24.1184 19.8399 23.7135 19.7137L17.2722 17.664L16.5825 15.9396L18.6191 13.4956C18.6852 13.4158 18.7214 13.3161 18.7214 13.2129V12.3309H19.1624C19.8918 12.3309 20.4854 11.7373 20.4854 11.0079V9.24389C20.4854 8.51447 19.8918 7.92088 19.1624 7.92088H18.7214V7.47988H19.1624C19.2845 7.47988 19.4018 7.42916 19.4847 7.33964C19.5681 7.25012 19.6109 7.12972 19.6021 7.00757L19.2784 2.47185C19.1963 1.32347 18.2305 0.423828 17.0786 0.423828H10.7833C9.56747 0.423828 8.5783 1.413 8.5783 2.62884V7.03888C8.5783 7.28231 8.77543 7.47988 9.0193 7.47988V7.92088H8.5783C7.84888 7.92088 7.25529 8.51447 7.25529 9.24389V11.0079C7.25529 11.7373 7.84888 12.3309 8.5783 12.3309H9.0193V13.2129C9.0193 13.3161 9.05546 13.4158 9.12117 13.4952L11.1502 15.9304L10.3454 17.7389L8.12274 18.4335L4.0267 19.7137C3.62186 19.8399 3.30037 20.1556 3.17998 20.5217L0.676845 26.2671C0.617309 26.4033 0.63098 26.5608 0.712125 26.6847C0.794152 26.809 0.932627 26.884 1.08124 26.884H26.6594C26.808 26.884 26.9465 26.809 27.0285 26.6847C27.1097 26.5603 27.1234 26.4033 27.0638 26.2671ZM18.7214 8.80289H19.1624C19.4058 8.80289 19.6034 9.0009 19.6034 9.24389V11.0079C19.6034 11.2509 19.4058 11.4489 19.1624 11.4489H18.7214V8.80289ZM9.0193 11.4489H8.5783C8.33486 11.4489 8.13729 11.2509 8.13729 11.0079V9.24389C8.13729 9.0009 8.33486 8.80289 8.5783 8.80289H9.0193V11.4489ZM17.0848 18.5663L18.6623 19.0593L15.816 21.4081L14.6536 19.9554L17.0848 18.5663ZM15.0434 22.0004L13.8703 23.1734L12.6973 22.0004L13.8703 20.534L15.0434 22.0004ZM11.2689 17.8338L11.8955 16.4261L13.7063 17.1506C13.7592 17.1714 13.8148 17.1819 13.8703 17.1819C13.9259 17.1819 13.9815 17.1714 14.0339 17.1506L15.8297 16.4322L16.4052 17.8717L13.8703 19.3199L11.2689 17.8338ZM9.4603 2.62884C9.4603 1.89942 10.0539 1.30583 10.7833 1.30583H17.0786C17.7692 1.30583 18.3492 1.84562 18.3986 2.53447L18.6887 6.59787H17.8394H15.6344C13.5859 6.59787 12.5473 5.85611 12.5473 4.39286C12.5473 4.14942 12.3502 3.95185 12.1063 3.95185C11.8624 3.95185 11.6653 4.14942 11.6653 4.39286C11.6653 5.6087 10.6762 6.59787 9.4603 6.59787V2.62884ZM9.90131 13.0533V7.44636C10.8274 7.31318 11.623 6.76854 12.0935 6.00296C12.6955 6.95729 13.9153 7.47988 15.6344 7.47988H17.8394V13.0533L15.8081 15.4907L13.8703 16.266L11.9326 15.4911L9.90131 13.0533ZM10.6709 18.561L13.1991 19.9607L12.0415 21.4076L9.16307 19.0324L10.6709 18.561ZM11.7623 26.002H1.75422L4.00333 20.8365C4.04787 20.7025 4.15504 20.5975 4.28954 20.5552L8.15758 19.3464L11.8104 22.3611L12.4997 23.0504L11.7623 26.002ZM12.6712 26.002L13.2269 23.7776L13.5581 24.1088C13.6445 24.1948 13.7574 24.238 13.8703 24.238C13.9832 24.238 14.0961 24.1948 14.1821 24.1088L14.5133 23.7776L15.0694 26.002H12.6712ZM15.9783 26.002L15.2405 23.0504L15.8306 22.4603C15.9038 22.4466 15.9739 22.4215 16.0321 22.3734L19.6678 19.3733L19.8583 19.4328L18.3029 24.0986C18.2557 24.2406 18.283 24.3968 18.3765 24.5136L19.5672 26.002H15.9783ZM19.2157 24.1498L20.7002 19.6957L21.4102 19.9175L21.793 24.5119L20.522 25.7828L19.2157 24.1498ZM21.55 26.002L22.5612 24.9908C22.6529 24.8991 22.6992 24.7716 22.6886 24.6424L22.3186 20.2015L23.4511 20.5552C23.5861 20.5971 23.6932 20.702 23.7519 20.8731L25.9865 26.002H21.55Z" fill="white"/>
</svg>
