<svg width="24" height="24" viewBox="0 0 24 24" fill="none" xmlns="http://www.w3.org/2000/svg">
<path d="M14.4732 12.4002C14.4732 13.6266 13.4796 14.6202 12.2532 14.6202C11.0268 14.6202 10.0332 13.6266 10.0332 12.4002C10.0332 11.1738 11.0268 10.1802 12.2532 10.1802C13.4796 10.1802 14.4732 11.1738 14.4732 12.4002Z" fill="url(#paint0_linear)"/>
<path d="M17.4448 8.47119C17.3384 8.18239 17.168 7.92082 16.9472 7.70562C16.732 7.48482 16.4704 7.31438 16.1808 7.20718C15.9464 7.11598 15.5936 7.00802 14.944 6.97842C14.2416 6.94642 14.0312 6.93921 12.2528 6.93921C10.4736 6.93921 10.2632 6.94562 9.56079 6.97842C8.91119 7.00802 8.5592 7.11598 8.324 7.20718C8.0352 7.31438 7.7728 7.48482 7.5584 7.70562C7.3368 7.92082 7.16721 8.18239 7.06001 8.47119C6.96881 8.70639 6.86 9.05919 6.8304 9.70879C6.7984 10.4104 6.79199 10.6216 6.79199 12.4C6.79199 14.1784 6.7984 14.3896 6.8304 15.092C6.86 15.7416 6.96881 16.0936 7.06001 16.3288C7.16721 16.6176 7.3368 16.8792 7.5584 17.0944C7.7728 17.316 8.0344 17.4856 8.324 17.5928C8.5592 17.684 8.91119 17.7928 9.56079 17.8224C10.2632 17.8544 10.4736 17.8608 12.2528 17.8608C14.0312 17.8608 14.2416 17.8544 14.944 17.8224C15.5936 17.7928 15.9464 17.684 16.1808 17.5928C16.7616 17.3688 17.2208 16.9096 17.4448 16.3288C17.536 16.0936 17.6448 15.7416 17.6744 15.092C17.7064 14.3896 17.7136 14.1784 17.7136 12.4C17.7136 10.6216 17.7064 10.4104 17.6744 9.70879C17.6448 9.05919 17.5368 8.70639 17.4448 8.47119ZM12.2528 15.82C10.3632 15.82 8.83201 14.2888 8.83201 12.4C8.83201 10.5112 10.3632 8.9792 12.2528 8.9792C14.1416 8.9792 15.6728 10.5112 15.6728 12.4C15.6728 14.2888 14.1416 15.82 12.2528 15.82ZM15.808 9.64399C15.3672 9.64399 15.0088 9.28559 15.0088 8.84399C15.0088 8.40319 15.3672 8.04482 15.808 8.04482C16.2496 8.04482 16.608 8.40319 16.608 8.84399C16.6072 9.28559 16.2496 9.64399 15.808 9.64399Z" fill="url(#paint1_linear)"/>
<path d="M12.2533 0.800049C5.84772 0.800049 0.65332 5.99445 0.65332 12.4C0.65332 18.8056 5.84772 24 12.2533 24C18.6589 24 23.8533 18.8056 23.8533 12.4C23.8533 5.99445 18.6589 0.800049 12.2533 0.800049ZM18.8741 15.1464C18.8421 15.8552 18.7293 16.3392 18.5645 16.7632C18.2181 17.6576 17.5109 18.3648 16.6165 18.7112C16.1925 18.876 15.7085 18.9881 14.9997 19.0208C14.2893 19.0529 14.0621 19.0608 12.2533 19.0608C10.4445 19.0608 10.2173 19.0529 9.50691 19.0208C8.79811 18.9881 8.31411 18.876 7.89011 18.7112C7.44531 18.544 7.04291 18.2817 6.71011 17.9433C6.37171 17.6105 6.10931 17.2072 5.94211 16.7632C5.77731 16.3392 5.66452 15.8552 5.63252 15.1464C5.59972 14.436 5.5925 14.2088 5.5925 12.4C5.5925 10.5912 5.59972 10.3641 5.63252 9.65366C5.66452 8.94486 5.77731 8.46087 5.94211 8.03687C6.10931 7.59287 6.37171 7.18964 6.71011 6.85684C7.04291 6.51844 7.44531 6.25607 7.89011 6.08887C8.31411 5.92407 8.79811 5.81205 9.50691 5.77925C10.2173 5.74725 10.4445 5.73926 12.2533 5.73926C14.0621 5.73926 14.2893 5.74725 14.9997 5.77925C15.7085 5.81205 16.1925 5.92407 16.6165 6.08887C17.0605 6.25607 17.4637 6.51844 17.7965 6.85684C18.1349 7.18964 18.3973 7.59287 18.5645 8.03687C18.7293 8.46087 18.8421 8.94486 18.8741 9.65366C18.9069 10.3641 18.9141 10.5912 18.9141 12.4C18.9141 14.2088 18.9069 14.436 18.8741 15.1464Z" fill="url(#paint2_linear)"/>
<defs>
<linearGradient id="paint0_linear" x1="12.2532" y1="10.1802" x2="12.2532" y2="14.6202" gradientUnits="userSpaceOnUse">
<stop stop-color="white"/>
<stop offset="1" stop-color="white"/>
</linearGradient>
<linearGradient id="paint1_linear" x1="12.2528" y1="6.93921" x2="12.2528" y2="17.8608" gradientUnits="userSpaceOnUse">
<stop stop-color="white"/>
<stop offset="1" stop-color="white"/>
</linearGradient>
<linearGradient id="paint2_linear" x1="12.2533" y1="0.800049" x2="12.2533" y2="24" gradientUnits="userSpaceOnUse">
<stop stop-color="white"/>
<stop offset="1" stop-color="white"/>
</linearGradient>
</defs>
</svg>
