<svg width="23" height="22" viewBox="0 0 23 22" fill="none" xmlns="http://www.w3.org/2000/svg">
<path d="M18.7596 15.4857C17.6452 15.2906 16.5816 14.9248 15.6047 14.4006C15.127 14.1384 14.4746 14.188 14.1087 14.4522L11.7917 15.6388C9.64014 13.9564 8.43402 12.239 7.59678 9.66465L9.44517 7.93393C9.90285 7.61308 10.1421 7.06923 10.068 6.50668C9.90636 5.40414 9.92301 4.27991 10.1182 3.16508C10.2592 2.35974 9.71871 1.58984 8.91341 1.44887L5.57085 0.86371C4.76554 0.722732 3.99565 1.26323 3.85467 2.06853C2.23869 11.2995 8.43378 20.1239 17.6647 21.7399C18.47 21.8808 19.2399 21.3403 19.3809 20.535L19.9644 17.2018C20.1053 16.3965 19.5648 15.6266 18.7596 15.4857Z" fill="white"/>
</svg>
