<svg width="24" height="25" viewBox="0 0 24 25" fill="none" xmlns="http://www.w3.org/2000/svg">
<g filter="url(#filter0_d)">
<path d="M15.4378 16.2997C14.9241 16.2997 14.4147 16.2088 13.9166 16.0279C11.7224 15.2308 9.6857 13.9326 8.02662 12.2735C6.36754 10.6145 5.0693 8.57771 4.27224 6.38349C4.01611 5.67833 3.94052 4.95042 4.04766 4.2199C4.14801 3.53563 4.41307 2.87135 4.8142 2.29885C5.21709 1.72382 5.75423 1.24556 6.36751 0.915759C7.02151 0.564083 7.73533 0.385742 8.48923 0.385742C8.7237 0.385742 8.92634 0.549568 8.97548 0.778818L9.75604 4.42143C9.79138 4.58638 9.74068 4.758 9.62143 4.87729L8.28767 6.21102C9.54587 8.71257 11.5875 10.7542 14.089 12.0124L15.4228 10.6786C15.542 10.5594 15.7137 10.5087 15.8786 10.544L19.5212 11.3246C19.7505 11.3737 19.9143 11.5764 19.9143 11.8108C19.9143 12.5647 19.736 13.2786 19.3843 13.9326C19.0545 14.5459 18.5762 15.083 18.0012 15.4859C17.4287 15.887 16.7644 16.1521 16.0801 16.2524C15.8657 16.2839 15.6513 16.2996 15.4378 16.2997ZM8.09189 1.40208C7.09747 1.51185 6.21484 2.03308 5.62872 2.86961C4.96963 3.81026 4.81594 4.96724 5.20705 6.04393C6.73945 10.2624 10.0378 13.5607 14.2562 15.0931C15.3329 15.4842 16.4899 15.3305 17.4305 14.6714C18.2671 14.0853 18.7883 13.2027 18.8981 12.2082L15.9348 11.5733L14.5419 12.9662C14.3937 13.1144 14.1685 13.1538 13.9788 13.0646C11.0202 11.6747 8.62542 9.27989 7.2355 6.32133C7.14639 6.13164 7.18574 5.90643 7.33396 5.75824L8.72687 4.36533L8.09189 1.40208Z" fill="#C2C1C2"/>
<path d="M19.4171 8.83942C19.1424 8.83942 18.9198 8.61675 18.9198 8.34213C18.9198 4.50324 15.7966 1.38008 11.9577 1.38008C11.6831 1.38008 11.4604 1.15742 11.4604 0.882787C11.4604 0.608159 11.6831 0.385498 11.9577 0.385498C14.0831 0.385498 16.0811 1.21311 17.5839 2.71592C19.0868 4.21873 19.9144 6.21681 19.9144 8.34213C19.9144 8.61675 19.6917 8.83942 19.4171 8.83942Z" fill="#C2C1C2"/>
<path d="M17.4279 8.83927C17.1533 8.83927 16.9306 8.61661 16.9306 8.34198C16.9306 5.59993 14.6998 3.36909 11.9577 3.36909C11.6831 3.36909 11.4604 3.14643 11.4604 2.8718C11.4604 2.59717 11.6831 2.37451 11.9577 2.37451C15.2482 2.37451 17.9252 5.05151 17.9252 8.34198C17.9252 8.61661 17.7026 8.83927 17.4279 8.83927Z" fill="#C2C1C2"/>
<path d="M15.4388 8.83937C15.1641 8.83937 14.9415 8.61671 14.9415 8.34208C14.9415 6.69683 13.603 5.35835 11.9577 5.35835C11.6831 5.35835 11.4604 5.13569 11.4604 4.86106C11.4604 4.58643 11.6831 4.36377 11.9577 4.36377C14.1514 4.36377 15.9361 6.14842 15.9361 8.34208C15.9361 8.61671 15.7134 8.83937 15.4388 8.83937Z" fill="#C2C1C2"/>
</g>
<defs>
<filter id="filter0_d" x="0.000488281" y="0.385498" width="23.9139" height="23.9142" filterUnits="userSpaceOnUse" color-interpolation-filters="sRGB">
<feFlood flood-opacity="0" result="BackgroundImageFix"/>
<feColorMatrix in="SourceAlpha" type="matrix" values="0 0 0 0 0 0 0 0 0 0 0 0 0 0 0 0 0 0 127 0" result="hardAlpha"/>
<feOffset dy="4"/>
<feGaussianBlur stdDeviation="2"/>
<feComposite in2="hardAlpha" operator="out"/>
<feColorMatrix type="matrix" values="0 0 0 0 0 0 0 0 0 0 0 0 0 0 0 0 0 0 0.25 0"/>
<feBlend mode="normal" in2="BackgroundImageFix" result="effect1_dropShadow"/>
<feBlend mode="normal" in="SourceGraphic" in2="effect1_dropShadow" result="shape"/>
</filter>
</defs>
</svg>
