<svg width="17" height="18" viewBox="0 0 17 18" fill="none" xmlns="http://www.w3.org/2000/svg">
<path d="M14.489 11.2646C13.5645 10.3402 12.4642 9.65584 11.2637 9.24158C12.5495 8.35601 13.3942 6.87392 13.3942 5.19805C13.3942 2.49245 11.193 0.29126 8.48743 0.29126C5.78183 0.29126 3.58063 2.49245 3.58063 5.19805C3.58063 6.87392 4.42536 8.35601 5.71118 9.24158C4.51067 9.65584 3.41035 10.3402 2.48592 11.2646C0.882858 12.8677 0 14.999 0 17.2661H1.32616C1.32616 13.3174 4.53868 10.1048 8.48743 10.1048C12.4362 10.1048 15.6487 13.3174 15.6487 17.2661H16.9749C16.9749 14.999 16.092 12.8677 14.489 11.2646ZM8.48743 8.77869C6.51307 8.77869 4.90679 7.17244 4.90679 5.19805C4.90679 3.22367 6.51307 1.61742 8.48743 1.61742C10.4618 1.61742 12.0681 3.22367 12.0681 5.19805C12.0681 7.17244 10.4618 8.77869 8.48743 8.77869Z" fill="#C2C1C2"/>
</svg>
