<svg width="324" height="327" viewBox="0 0 324 327" fill="none" xmlns="http://www.w3.org/2000/svg">
<path d="M314.135 192.241H301.462L268.893 112.414C278.257 107.672 284.756 98.0562 284.756 86.8597C284.756 81.5644 280.471 77.2796 275.176 77.2796C269.881 77.2796 265.596 81.5644 265.596 86.8597C265.596 92.1453 261.301 96.4398 256.016 96.4398C251.029 96.4398 248.578 94.6061 243.498 90.4618C236.687 84.904 227.35 77.2796 208.115 77.2796C195.062 77.2796 186.331 80.844 180.408 85.6072C177.442 82.6719 173.803 80.4736 169.795 79.0442V75.5149C180.922 71.5468 188.955 61.0126 188.955 48.5393C188.955 36.2927 174.37 12.9716 168.102 3.88712C164.509 -1.29571 155.921 -1.29571 152.329 3.88712C146.06 12.9716 131.475 36.2927 131.475 48.5393C131.475 61.0126 139.508 71.5468 150.635 75.5149V79.0442C146.627 80.4736 142.988 82.6719 140.022 85.6072C134.099 80.844 125.368 77.2796 112.314 77.2796C93.0796 77.2796 83.7428 84.904 76.932 90.4618C71.852 94.6061 69.4008 96.4398 64.4141 96.4398C59.1284 96.4398 54.834 92.1453 54.834 86.8597C54.834 81.5644 50.5491 77.2796 45.2539 77.2796C39.9587 77.2796 35.6738 81.5644 35.6738 86.8597C35.6738 98.0562 42.1723 107.672 51.5372 112.414L18.9681 192.241H6.29492C0.999693 192.241 -3.28516 196.526 -3.28516 201.821C-3.28516 228.232 18.2042 249.721 44.6152 249.721H83.5742C109.985 249.721 131.475 228.232 131.475 201.821C131.475 196.526 127.19 192.241 121.895 192.241H109.221L77.4474 112.805C82.1474 110.731 85.8805 107.894 89.047 105.309C94.8755 100.547 99.9089 96.4398 112.314 96.4398C129.81 96.4398 131.353 104.523 131.475 106.254C131.476 106.321 131.514 106.376 131.518 106.444C131.701 118.729 139.637 129.074 150.635 132.995V271.284C139.508 275.252 131.475 285.786 131.475 298.26C131.475 303.545 127.18 307.84 121.895 307.84H102.734C97.4391 307.84 93.1543 312.125 93.1543 317.42C93.1543 322.715 97.4391 327 102.734 327H217.695C222.991 327 227.275 322.715 227.275 317.42C227.275 312.125 222.991 307.84 217.695 307.84H198.535C193.25 307.84 188.955 303.545 188.955 298.26C188.955 285.786 180.922 275.252 169.795 271.284V132.995C180.806 129.068 188.751 118.704 188.917 106.399C188.919 106.36 188.944 106.33 188.946 106.291C189.058 104.654 190.48 96.4398 208.115 96.4398C220.521 96.4398 225.554 100.547 231.383 105.309C234.549 107.894 238.282 110.731 242.982 112.805L211.208 192.241H198.535C193.24 192.241 188.955 196.526 188.955 201.821C188.955 228.232 210.444 249.721 236.855 249.721H275.814C302.225 249.721 323.715 228.232 323.715 201.821C323.715 196.526 319.43 192.241 314.135 192.241ZM39.6068 192.241L64.4141 131.818L88.5827 192.241H39.6068ZM231.847 192.241L256.016 131.818L280.823 192.241H231.847Z" fill="#FAFAFA"/>
</svg>
