<svg width="23" height="23" viewBox="0 0 23 23" fill="none" xmlns="http://www.w3.org/2000/svg">
<path d="M11.1161 0.800049C5.04646 0.800049 0.126465 5.72005 0.126465 11.7896C0.126465 17.8592 5.04646 22.7792 11.1161 22.7792C17.1849 22.7792 22.1049 17.8592 22.1049 11.7896C22.1049 5.72005 17.1849 0.800049 11.1161 0.800049ZM16.6905 12.9785C17.2025 13.4785 17.7441 13.9488 18.2041 14.5008C18.4081 14.7456 18.6001 14.9976 18.7457 15.2816C18.9545 15.6864 18.7665 16.1312 18.4041 16.1552L16.1521 16.1544C15.5705 16.2024 15.1081 15.9681 14.7177 15.5705C14.4065 15.2537 14.1177 14.9152 13.8177 14.588C13.6953 14.4536 13.5665 14.3264 13.4121 14.2272C13.1057 14.0272 12.8385 14.0888 12.6633 14.4088C12.4841 14.7352 12.4425 15.0969 12.4257 15.4601C12.4009 15.9913 12.2409 16.1296 11.7081 16.1544C10.5705 16.208 9.49047 16.0353 8.48647 15.4617C7.60087 14.9553 6.91608 14.2408 6.31848 13.432C5.15528 11.8552 4.26487 10.1249 3.46487 8.34487C3.28487 7.94407 3.41607 7.72963 3.85847 7.72163C4.59367 7.70723 5.32808 7.70885 6.06328 7.72085C6.36248 7.72565 6.56007 7.89687 6.67527 8.17847C7.07207 9.15527 7.55847 10.0849 8.16887 10.9473C8.33127 11.1769 8.49767 11.4057 8.73367 11.5681C8.99447 11.7465 9.19286 11.688 9.31606 11.3968C9.39526 11.2112 9.42888 11.0136 9.44568 10.8152C9.50408 10.136 9.51127 9.45683 9.41047 8.78003C9.34727 8.35683 9.10888 8.08327 8.68728 8.00327C8.47208 7.96247 8.50328 7.88324 8.60808 7.76084C8.78968 7.54804 8.95927 7.41685 9.29927 7.41685L11.8433 7.41606C12.2441 7.49526 12.3337 7.67527 12.3881 8.07847L12.3905 10.9057C12.3857 11.0617 12.4689 11.5248 12.7497 11.6272C12.9745 11.7016 13.1233 11.5216 13.2577 11.3792C13.8673 10.7312 14.3017 9.96725 14.6913 9.17686C14.8633 8.82806 15.0113 8.46726 15.1553 8.10566C15.2625 7.83846 15.4289 7.70643 15.7305 7.71123L18.1801 7.71445C18.2521 7.71445 18.3249 7.71445 18.3969 7.72725C18.8097 7.79765 18.9225 7.97527 18.7953 8.37847C18.5937 9.01047 18.2033 9.53765 17.8217 10.0665C17.4121 10.6321 16.9761 11.1776 16.5705 11.7464C16.1985 12.2656 16.2281 12.5273 16.6905 12.9785Z" fill="url(#paint0_linear)"/>
<defs>
<linearGradient id="paint0_linear" x1="11.1161" y1="0.800049" x2="11.1161" y2="22.7792" gradientUnits="userSpaceOnUse">
<stop stop-color="white"/>
<stop offset="1" stop-color="white"/>
</linearGradient>
</defs>
</svg>
