<svg width="23" height="23" viewBox="0 0 23 23" fill="none" xmlns="http://www.w3.org/2000/svg">
<path d="M11.5897 0.800049C5.5209 0.800049 0.600098 5.72085 0.600098 11.7896C0.600098 17.8576 5.5209 22.7792 11.5897 22.7792C17.6577 22.7792 22.5793 17.8576 22.5793 11.7896C22.5793 5.72085 17.6577 0.800049 11.5897 0.800049ZM18.4561 11.8008C18.4561 11.8008 18.4561 14.0297 18.1737 15.1041C18.0153 15.6921 17.5513 16.1561 16.9633 16.3145C15.8881 16.5977 11.5897 16.5977 11.5897 16.5977C11.5897 16.5977 7.30169 16.5977 6.21609 16.3033C5.62809 16.1449 5.16409 15.6809 5.00569 15.0929C4.72249 14.0297 4.72251 11.7896 4.72251 11.7896C4.72251 11.7896 4.72249 9.56083 5.00569 8.48643C5.16409 7.89763 5.63929 7.42244 6.21609 7.26484C7.29049 6.98164 11.5897 6.98164 11.5897 6.98164C11.5897 6.98164 15.8881 6.98163 16.9633 7.27602C17.5513 7.43363 18.0153 7.89763 18.1737 8.48643C18.4681 9.56083 18.4561 11.8008 18.4561 11.8008Z" fill="url(#paint0_linear)"/>
<path d="M9.3999 14.4841L14.2839 12.0425L9.3999 9.6001V14.4841Z" fill="url(#paint1_linear)"/>
<defs>
<linearGradient id="paint0_linear" x1="11.5897" y1="0.800049" x2="11.5897" y2="22.7792" gradientUnits="userSpaceOnUse">
<stop stop-color="white"/>
<stop offset="1" stop-color="white"/>
</linearGradient>
<linearGradient id="paint1_linear" x1="11.8423" y1="9.6001" x2="11.8423" y2="14.4841" gradientUnits="userSpaceOnUse">
<stop stop-color="white"/>
<stop offset="1" stop-color="white"/>
</linearGradient>
</defs>
</svg>
